<?xml version="1.0" encoding="UTF-8" standalone="no"?>
<!-- Created with Inkscape (http://www.inkscape.org/) -->

<svg
   width="512"
   height="512"
   viewBox="0 0 512 512"
   version="1.1"
   id="svg1"
   xml:space="preserve"
   sodipodi:docname="regeringen-splash.svg"
   inkscape:version="1.1.2 (0a00cf5339, 2022-02-04)"
   xmlns:inkscape="http://www.inkscape.org/namespaces/inkscape"
   xmlns:sodipodi="http://sodipodi.sourceforge.net/DTD/sodipodi-0.dtd"
   xmlns="http://www.w3.org/2000/svg"
   xmlns:svg="http://www.w3.org/2000/svg"><sodipodi:namedview
     id="namedview13"
     pagecolor="#ffffff"
     bordercolor="#666666"
     borderopacity="1.0"
     inkscape:pageshadow="2"
     inkscape:pageopacity="0.0"
     inkscape:pagecheckerboard="0"
     showgrid="false"
     inkscape:zoom="1.26"
     inkscape:cx="284.52381"
     inkscape:cy="292.06349"
     inkscape:window-width="1848"
     inkscape:window-height="1043"
     inkscape:window-x="72"
     inkscape:window-y="0"
     inkscape:window-maximized="1"
     inkscape:current-layer="svg1" /><defs
     id="defs1" /><g
     id="layer2"
     style="display:inline"><rect
       style="opacity:1;fill:#ffffff;stroke-width:1.28526"
       id="rect1"
       width="512"
       height="512"
       x="0"
       y="0" /></g><g
     id="layer4"><path
       style="display:inline;opacity:1;fill:#183151;fill-opacity:1;stroke:none;stroke-width:0.1;stroke-dasharray:none;stroke-opacity:1"
       d="m 152.36043,203.71664 c 4.6248,41.72756 6.28953,71.63579 7.95495,106.06602 0,69.14873 44.5691,113.78537 97.4313,112.72471 52.8622,1.06066 97.4313,-43.57598 97.4313,-112.72471 1.66542,-34.43023 3.33015,-64.33846 7.95495,-106.06602"
       id="path33"
       transform="translate(-1.7466778,-0.42343708)" /><path
       id="path28"
       style="opacity:1;fill:#fecb00;fill-opacity:1;stroke:none;stroke-width:0.0969677;stroke-dasharray:none;stroke-opacity:1"
       d="m 160.95449,192.53359 c 0.54105,3.96954 0.8418,6.82006 1.06055,10.76172 h 187.96875 c 0.21875,-3.94166 0.5195,-6.74921 1.06055,-10.71875 z" /><path
       id="path15"
       style="display:inline;opacity:1;fill:#fecb00;fill-opacity:1;stroke:none;stroke-width:0.1;stroke-dasharray:none;stroke-opacity:1"
       d="m 149.38086,132.89844 c 0,0 9.05113,22.17386 12.00195,54.83008 h 192.72656 c 2.95082,-32.65622 12.00196,-54.83008 12.00196,-54.83008 -2.23828,-0.59766 -4.98337,-1.14928 -7.22852,-1.15821 -9.72897,-0.0387 -17.86914,5.65821 -14.77148,16.22071 0,0 -12.1875,-1.375 -12.5625,9.375 -0.375,10.75 9.8125,11.125 9.8125,11.125 l -0.1543,0.35156 -0.0254,-0.0449 c -1.95756,3.7053 -5.60997,6.47095 -9.70703,7.35156 -4.09705,0.88061 -8.56198,-0.13917 -11.86914,-2.71289 -1.4261,-1.10983 -2.62549,-2.50119 -3.54492,-4.05664 6.14178,-0.22559 11.04882,-4.87471 11.04882,-10.5918 0,-5.86106 -5.15371,-10.61133 -11.51171,-10.61133 -0.29458,0 -0.58598,0.0112 -0.875,0.0312 1.13042,-1.63967 1.73418,-3.54297 1.74218,-5.48828 -4.6e-4,-5.67044 -4.9644,-10.26713 -11.08789,-10.26758 -6.12349,4.5e-4 -11.08743,4.59714 -11.08789,10.26758 0.008,1.94531 0.61177,3.84861 1.74219,5.48828 -0.28902,-0.0199 -0.58042,-0.0312 -0.875,-0.0312 -6.358,0 -11.51172,4.75027 -11.51172,10.61133 0,5.71867 4.91052,10.3686 11.05469,10.5918 -2.10417,3.63158 -5.83697,6.28311 -9.96875,7.03125 -4.23646,0.7671 -8.79339,-0.47283 -12.05664,-3.28125 -1.28645,-1.10714 -2.35913,-2.45231 -3.1875,-3.93359 5.63808,-0.68705 9.99219,-5.12465 9.99219,-10.50977 0,-5.86106 -5.15372,-10.61133 -11.51172,-10.61133 -0.29458,0 -0.58598,0.0113 -0.875,0.0312 1.13042,-1.63967 1.73418,-3.54297 1.74218,-5.48828 -4.6e-4,-5.67044 -4.9644,-10.26713 -11.08789,-10.26758 -6.12349,4.5e-4 -11.08743,4.59714 -11.08789,10.26758 0.008,1.94531 0.61177,3.84861 1.74219,5.48828 -0.28902,-0.02 -0.58042,-0.0312 -0.875,-0.0312 -6.358,0 -11.51172,4.75027 -11.51172,10.61133 0,5.38512 4.35411,9.82272 9.99219,10.50977 -0.82837,1.48128 -1.90105,2.82645 -3.1875,3.93359 -3.26325,2.80842 -7.82018,4.04835 -12.05664,3.28125 -4.13178,-0.74814 -7.86458,-3.39967 -9.96875,-7.03125 6.14417,-0.2232 11.05469,-4.87313 11.05469,-10.5918 0,-5.86106 -5.15372,-10.61133 -11.51172,-10.61133 -0.29458,0 -0.58598,0.0113 -0.875,0.0312 1.13042,-1.63967 1.7346,-3.54297 1.74218,-5.48828 -4.6e-4,-5.67044 -4.9644,-10.26713 -11.08789,-10.26758 -6.12349,4.5e-4 -11.08743,4.59714 -11.08789,10.26758 0.008,1.94531 0.61177,3.84861 1.74219,5.48828 -0.28902,-0.02 -0.58042,-0.0312 -0.875,-0.0312 -6.358,0 -11.51172,4.75027 -11.51172,10.61133 0,5.71709 4.90705,10.36621 11.04883,10.5918 -0.91943,1.55545 -2.11882,2.94681 -3.54492,4.05664 -3.30716,2.57372 -7.77209,3.5935 -11.86914,2.71289 -4.09706,-0.88061 -7.74947,-3.64626 -9.70703,-7.35156 l -0.0254,0.0449 -0.1543,-0.35156 c 0,0 10.1875,-0.375 9.8125,-11.125 -0.375,-10.75 -12.5625,-9.375 -12.5625,-9.375 3.09766,-10.5625 -5.48002,-16.00939 -11.46707,-15.98555 -5.98705,0.0238 -8.29463,0.32539 -10.53291,0.92305 z"
       transform="translate(-1.7466778,-0.42343708)" /><path
       id="path26"
       style="opacity:1;fill:#fecb00;fill-opacity:1;stroke:none;stroke-width:0.1;stroke-dasharray:none;stroke-opacity:1"
       d="m 283.65035,97.279296 c 40.92156,9.900564 53.4082,47.019534 53.4082,47.019534 0,0 0.70312,-0.0625 2.1875,-0.3125 0.125,-4.8125 1.8125,-9.4375 10.4375,-13.625 -22.25781,-41.179705 -69.625,-44.248006 -81.11914,-44.347659 -0.81937,-0.0071 -3.34309,-0.01953 -3.57422,-0.01953 1.91079,-1.908754 2.99101,-4.49453 3.00586,-7.195313 -0.0128,-4.783768 -3.33289,-8.922574 -8,-9.972656 v -7.527344 h 6.8125 v -4.375 h -6.8125 v -8.25 h -4.49996 v 8.25 h -6.8125 v 4.375 h 6.8125 v 7.527344 c -4.66711,1.050082 -7.98723,5.188888 -8,9.972656 0.0149,2.700783 1.09508,5.286559 3.00586,7.195313 -0.3391,0 -0.63869,-0.01086 -3.57422,0.01953 -11.49396,0.119015 -58.86133,3.167954 -81.11914,44.347659 8.625,4.1875 10.3125,8.8125 10.4375,13.625 1.48438,0.25 2.1875,0.3125 2.1875,0.3125 0,0 12.48665,-37.11897 53.40821,-47.019534 l 0.0117,0.0332 c -6.38139,5.003864 -19.86221,14.875864 -25.73243,32.736334 0,0 8.875,-2.25 15.5,4.25 3.84508,-17.98505 16.79663,-32.38959 28.96485,-37.251959 0.21936,-0.05877 0.32422,-0.03646 0.43945,0.02734 -1.88201,10.018969 -3.10742,24.280209 -3.10742,34.037109 3.09547,-2.18913 7.20056,-3.02321 9.82812,-3.07617 2.62756,0.053 6.73265,0.88704 9.82813,3.07617 0,-9.7569 -1.22541,-24.01814 -3.10742,-34.037109 0.10781,-0.07541 0.28555,-0.08346 0.43945,-0.02734 12.16822,4.862369 25.11976,19.266909 28.96484,37.251959 6.625,-6.5 15.5,-4.25 15.5,-4.25 -5.87022,-17.86047 -19.35103,-27.73247 -25.73242,-32.736334"
       transform="translate(-1.7466778,-0.42343708)" /></g><path
     fill="currentColor"
     d="m 306.82059,231.97921 -22.80431,4.52604 15.89918,20.54129 11.43117,-2.32103 z m -39.86403,7.89159 -11.43118,2.26303 15.95724,20.48322 11.37311,-2.26301 z m -28.43285,5.57052 -11.43117,2.37905 15.95723,20.48328 11.37313,-2.26302 z m -28.49089,5.80262 -5.68658,1.10248 a 11.605247,11.605247 0 0 0 -9.1101,13.63619 l 2.26303,11.37313 28.43283,-5.62853 z m -12.53365,26.1118 v 58.02622 a 11.605247,11.605247 0 0 0 11.60525,11.60526 h 92.84196 c 6.44092,0 11.60527,-5.16436 11.60527,-11.60526 v -58.02622 z"
     id="path1404"
     style="fill:#fecb00;fill-opacity:1;stroke-width:5.80261" /></svg>
