<?xml version="1.0" encoding="UTF-8" standalone="no"?>
<svg
   width="24"
   height="24"
   viewBox="0 0 24 24"
   fill="#eee"
   stroke="#eee"
   stroke-width="2"
   stroke-linecap="round"
   stroke-linejoin="round"
   class="lucide lucide-crown"
   version="1.1"
   id="svg1"
   sodipodi:docname="crown.svg"
   inkscape:version="1.4 (86a8ad7, 2024-10-11)"
   xmlns:inkscape="http://www.inkscape.org/namespaces/inkscape"
   xmlns:sodipodi="http://sodipodi.sourceforge.net/DTD/sodipodi-0.dtd"
   xmlns="http://www.w3.org/2000/svg"
   xmlns:svg="http://www.w3.org/2000/svg">
  <defs
     id="defs1" />
  <sodipodi:namedview
     id="namedview1"
     pagecolor="#ffffff"
     bordercolor="#000000"
     borderopacity="0.25"
     inkscape:showpageshadow="2"
     inkscape:pageopacity="0.0"
     inkscape:pagecheckerboard="0"
     inkscape:deskcolor="#d1d1d1"
     inkscape:zoom="17.354167"
     inkscape:cx="-0.028811525"
     inkscape:cy="16.220888"
     inkscape:window-width="1835"
     inkscape:window-height="1051"
     inkscape:window-x="76"
     inkscape:window-y="-9"
     inkscape:window-maximized="1"
     inkscape:current-layer="svg1" />
  <path
     d="m 11.562,5.2455795 a 0.5,0.5 0 0 1 0.876,0 L 15.39,10.84958 a 1,1 0 0 0 1.516,0.294 l 4.277,-3.6640005 a 0.5,0.5 0 0 1 0.798,0.519 L 19.147,18.24458 a 1,1 0 0 1 -0.956,0.734 H 5.81 a 1,1 0 0 1 -0.957,-0.734 L 2.02,7.9995795 a 0.5,0.5 0 0 1 0.798,-0.519 L 7.094,11.14458 a 1,1 0 0 0 1.516,-0.294 z"
     id="path1" />
</svg>
